<?xml version="1.0" encoding="utf-8"?>
<!-- Generator: Adobe Illustrator 25.0.0, SVG Export Plug-In . SVG Version: 6.00 Build 0)  -->
<svg version="1.1" id="katman_1" xmlns="http://www.w3.org/2000/svg" xmlns:xlink="http://www.w3.org/1999/xlink" x="0px" y="0px"
	 viewBox="0 0 560 400" style="enable-background:new 0 0 560 400;" xml:space="preserve">
<style type="text/css">
	.st0{fill:#231F20;}
</style>
<g transform="matrix(1.34695 0 0 1.34695 29.9854 166.184)">
	<path class="st0" d="M81.1,43.3c-7.4,0-14-4.4-16.9-11.2c-2.9-6.8-1.3-14.7,3.9-19.9c5.2-5.2,13-6.8,19.9-4
		c6.8,2.8,11.3,9.5,11.3,16.8C99.2,35.1,91.1,43.3,81.1,43.3 M81.1,0.1C70.9,0,61.8,6.1,57.9,15.4c-3.9,9.3-1.8,20.1,5.3,27.3
		c7.1,7.2,17.9,9.3,27.3,5.5s15.5-13,15.5-23.1C105.9,11.3,94.8,0.2,81.1,0.1"/>
	<path class="st0" d="M173.4,1.5c-0.2,0-0.4,0.1-0.6,0.3l-25.6,34.8L121.6,1.8c-0.1-0.2-0.3-0.3-0.6-0.3c-0.4,0-0.7,0.3-0.7,0.7
		v46.4h6.8V21.2l19.7,26.6c0.1,0.1,0.2,0.2,0.4,0.2s0.3-0.1,0.4-0.2l19.7-26.6v27.4h6.8V2.2c0-0.2-0.1-0.4-0.2-0.5
		C173.8,1.6,173.6,1.5,173.4,1.5"/>
	<path class="st0" d="M215.6,24.9h-15.8V8.3h15.8c4.6,0,8.3,3.7,8.3,8.3S220.1,24.9,215.6,24.9 M215.6,1.5H193v47.1h6.8V31.8h15.8
		c8.3,0,15.1-6.8,15.1-15.1S223.9,1.5,215.6,1.5"/>
	<path class="st0" d="M25.1,43.3c-8.5,0-16-5.9-17.9-14.2c-1.9-8.3,2.3-16.9,10-20.5C25,5,34.2,7.2,39.4,14l4.9-4.8
		C37.5,1.1,26.5-2,16.5,1.6C6.6,5.2,0,14.6,0,25.1s6.6,19.9,16.5,23.5c9.9,3.6,21,0.5,27.7-7.6l-4.9-4.8
		C36,40.7,30.7,43.3,25.1,43.3"/>
	<path class="st0" d="M311,20.8l-5.2-1.2c-5.6-1.2-6-5-6-6.2c0-3.9,3.1-6.1,8.4-6.1c5.5,0,9.5,3.7,10.8,5l4.8-4.7
		c-4.5-4.7-9.5-7-15.5-7c-9.1,0-15.2,5.1-15.2,12.7c0,2.4,0,9.8,12.2,12.8l5.7,1.3c5.3,1.5,7.8,4,7.8,7.8c0,4.4-4.3,7.5-10.4,7.5
		c-6.5,0-10.5-4.5-11.8-6l-4.7,4.6c3.2,3.7,8.7,8,16.5,8c9.8,0,17.1-6.1,17.1-14.2C325.6,28,320.6,23,311,20.8"/>
	<path class="st0" d="M356.7,20.8l-5.2-1.2c-5.6-1.2-6-5-6-6.2c0-3.9,3.1-6.1,8.4-6.1c5.5,0,9.5,3.7,10.7,5l4.8-4.7
		c-4.5-4.7-9.6-7-15.5-7c-9.1,0-15.2,5.1-15.2,12.7c0,2.4,0,9.8,12.2,12.8l5.7,1.3c5.3,1.5,7.8,4,7.8,7.8c0,4.4-4.3,7.5-10.4,7.5
		c-6.5,0-10.6-4.5-11.8-6l-4.8,4.7c3.2,3.7,8.7,8,16.5,8c9.8,0,17.1-6.1,17.1-14.2C371.2,28.1,366.2,23,356.7,20.8"/>
	<path class="st0" d="M250.4,29.7l7.8-14.8l7.8,14.8H250.4z M258.2,1.1c-0.3,0-0.5,0.2-0.6,0.4l-24.7,47.1h7.7l6.3-12.1h22.7
		l6.3,12.1h7.7L258.8,1.5C258.7,1.3,258.5,1.1,258.2,1.1z"/>
	<path class="st0" d="M70.4,31l4.8,4.8l16.6-16.7l-4.8-4.8L70.4,31z"/>
</g>
</svg>
