<?xml version="1.0" encoding="utf-8"?>
<!-- Generator: Adobe Illustrator 26.0.3, SVG Export Plug-In . SVG Version: 6.00 Build 0)  -->
<svg version="1.0" id="Layer_1" xmlns="http://www.w3.org/2000/svg" xmlns:xlink="http://www.w3.org/1999/xlink" x="0px" y="0px"
	 viewBox="0 0 853.7 590.6" style="enable-background:new 0 0 853.7 590.6;" xml:space="preserve">
<style type="text/css">
	.st0{clip-path:url(#SVGID_00000143616452167187609560000007901078651236485546_);}
	.st1{fill:#FF850F;}
	.st2{fill-rule:evenodd;clip-rule:evenodd;fill:#D24708;}
	.st3{fill-rule:evenodd;clip-rule:evenodd;fill:#1A1919;}
	.st4{fill-rule:evenodd;clip-rule:evenodd;fill:#0B0B09;}
</style>
<g>
	<defs>
		<rect id="SVGID_1_" x="58.7" y="223.6" width="740" height="143.4"/>
	</defs>
	<clipPath id="SVGID_00000098189547188229225130000016980353326546685353_">
		<use xlink:href="#SVGID_1_"  style="overflow:visible;"/>
	</clipPath>
	<g style="clip-path:url(#SVGID_00000098189547188229225130000016980353326546685353_);">
		<path class="st1" d="M119.2,224.1c0.9-0.6,2-0.7,2.9-0.1l24.9,16.8c0.8,0.6,1,1.7,0.5,2.5l-17.6,24.2c-0.6,0.9-1.7,1.3-2.8,1
			l-48-13.4c-1-0.3-1.1-1-0.3-1.6L119.2,224.1L119.2,224.1z"/>
		<path class="st2" d="M157.4,233.1l2.3,50.1c0.1,1.1,0.8,2,1.8,2.4l28.3,9.3c0.5,0.1,1,0.1,1.4-0.1c0.4-0.2,0.7-0.6,0.9-1.1l8.2-29
			c0.3-1-0.1-2.2-1-2.8l-40.3-29.6C158,231.7,157.4,232.1,157.4,233.1L157.4,233.1z"/>
		<path class="st1" d="M157.4,233.1l2.3,50.1c0.1,1.1,0.8,2,1.8,2.4l28.3,9.3c0.5,0.1,1,0.1,1.4-0.1c0.4-0.2,0.7-0.6,0.9-1.1l8.2-29
			c0.3-1-0.1-2.2-1-2.8l-40.3-29.6C158,231.7,157.4,232.1,157.4,233.1L157.4,233.1z"/>
		<path class="st2" d="M202.5,301.3L155.8,319c-1,0.4-1.7,1.3-1.7,2.4v30c0,1,0.8,1.8,1.8,1.8c0,0,0,0,0,0l29.9-1.1
			c1.1,0,2-0.7,2.3-1.8l15.4-47.8C203.9,301.5,203.4,301,202.5,301.3z"/>
		<path class="st1" d="M202.5,301.3L155.8,319c-1,0.4-1.7,1.3-1.7,2.4v30c0,1,0.8,1.8,1.8,1.8c0,0,0,0,0,0l29.9-1.1
			c1.1,0,2-0.7,2.3-1.8l15.4-47.8C203.9,301.5,203.4,301,202.5,301.3z"/>
		<path class="st2" d="M152,365.6L121,326.3c-0.7-0.8-1.8-1.2-2.8-0.9l-28.3,9.2c-0.9,0.3-1.5,1.4-1.1,2.3c0,0,0,0,0,0L99,365.3
			c0.4,1,1.3,1.7,2.4,1.7h49.9C152.3,367,152.6,366.3,152,365.6z"/>
		<path class="st1" d="M152,365.6L121,326.3c-0.7-0.8-1.8-1.2-2.8-0.9l-28.3,9.2c-0.9,0.3-1.5,1.4-1.1,2.3c0,0,0,0,0,0L99,365.3
			c0.4,1,1.3,1.7,2.4,1.7h49.9C152.3,367,152.6,366.3,152,365.6z"/>
		<path class="st2" d="M74.2,336.8L58.8,289c-0.3-1,0-2.1,0.8-2.8l23.5-18.6c0.4-0.3,0.9-0.4,1.3-0.4c0.5,0.1,0.9,0.3,1.2,0.7
			l17.5,24.3c0.6,0.9,0.6,2.1,0,2.9l-27.4,41.9C75.2,337.9,74.5,337.8,74.2,336.8L74.2,336.8z"/>
		<path class="st1" d="M85.7,267.9l17.5,24.3c0.6,0.9,0.6,2.1,0,2.9l-27.4,41.9c-0.6,0.8-1.3,0.7-1.6-0.2L58.8,289
			c-0.3-1,0-2.1,0.8-2.8l23.5-18.6c0.4-0.3,0.9-0.4,1.3-0.4C85,267.3,85.4,267.5,85.7,267.9z"/>
		<path class="st3" d="M743,295.7c1-1.2,2-2.4,3.2-3.4c1.3-1.2,2.7-2.2,4.3-3c1.6-0.9,3.3-1.6,5-2.1c1.7-0.5,3.6-0.8,5.4-0.8
			c4.7,0,8.3,1.3,11,3.8c2.7,2.6,4,6.1,4,10.6v27.7c0,0.9,0.2,1.8,0.6,2.6c0.4,0.7,0.9,1.2,1.6,1.5c0.8,0.4,1.6,0.6,2.4,0.8
			c0.9,0.2,1.9,0.4,3,0.5v3.7h-24.5v-3.7c1.1-0.1,2.1-0.3,3-0.5c0.8-0.1,1.7-0.4,2.4-0.8c0.7-0.3,1.2-0.9,1.6-1.5
			c0.4-0.8,0.6-1.7,0.6-2.6v-25.2c0-3.1-0.8-5.5-2.4-7s-3.9-2.2-7-2.2c-2.5,0-4.9,0.6-7.2,1.6c-2.4,0.9-4.5,2.3-6.3,4v28.8
			c0,0.9,0.2,1.8,0.6,2.6c0.4,0.7,0.9,1.2,1.6,1.5c0.8,0.4,1.6,0.6,2.4,0.8c0.9,0.2,1.9,0.4,3,0.5v3.7h-24.6v-3.7
			c1.1-0.1,2.1-0.3,3-0.5c0.8-0.1,1.7-0.4,2.4-0.8c0.7-0.3,1.2-0.9,1.6-1.5c0.4-0.8,0.6-1.7,0.6-2.6v-25.2c0-3.1-0.8-5.5-2.4-7
			s-3.9-2.2-7-2.2c-2.5,0-4.9,0.6-7.2,1.6c-2.4,0.9-4.5,2.3-6.3,4v28.8c0,0.9,0.2,1.8,0.6,2.6c0.4,0.6,0.9,1.2,1.6,1.5
			c0.8,0.4,1.6,0.6,2.4,0.8c1,0.2,2,0.4,3,0.5v3.7h-24.5v-3.7c1.1-0.1,2.1-0.3,3-0.5c0.8-0.2,1.7-0.4,2.4-0.8
			c0.7-0.3,1.2-0.9,1.6-1.5c0.4-0.8,0.6-1.7,0.6-2.6v-31.7l-7.1-3.4v-2.3l13.7-4.7h3.3l-0.5,9c2-2.5,4.5-4.7,7.3-6.2
			c1.5-0.8,3.2-1.5,4.8-2c1.7-0.5,3.5-0.8,5.2-0.8c3.3-0.1,6.6,0.7,9.4,2.4C740.4,290.4,742.2,292.9,743,295.7L743,295.7z
			 M663.2,338.5c-3.5,0-7-0.6-10.2-1.9c-3-1.2-5.7-2.9-8-5.2c-2.3-2.3-4-5-5.2-7.9c-1.3-3.2-1.9-6.7-1.8-10.1
			c-0.1-3.9,0.7-7.7,2.2-11.2c2.7-6.4,8-11.4,14.5-13.9c3.3-1.3,6.8-1.9,10.4-1.9c3.5,0,7,0.6,10.2,1.9c3,1.2,5.7,2.9,8,5.2
			c2.2,2.3,4,5,5.2,8c1.3,3.2,1.9,6.6,1.9,10.1c0.1,3.9-0.7,7.7-2.2,11.2c-2.7,6.4-8,11.4-14.5,13.9
			C670.3,337.9,666.7,338.5,663.2,338.5z M666,332.6c2.2,0.1,4.3-0.4,6.2-1.3c1.8-0.9,3.3-2.1,4.4-3.7c1.2-1.7,2.1-3.6,2.7-5.7
			c0.6-2.3,0.9-4.7,0.9-7.2c0-2.9-0.4-5.9-1.2-8.7c-0.7-2.6-1.9-5-3.5-7.2c-1.5-2-3.4-3.7-5.6-4.8c-2.4-1.2-5-1.8-7.6-1.8
			c-2.1,0-4.3,0.4-6.2,1.3c-1.8,0.9-3.3,2.1-4.5,3.8c-1.2,1.7-2.1,3.6-2.7,5.7c-0.6,2.3-0.9,4.7-0.9,7.1c0,2.9,0.4,5.9,1.2,8.7
			c0.7,2.6,1.9,5,3.5,7.2c1.5,2,3.4,3.7,5.6,4.8C660.7,332,663.4,332.7,666,332.6L666,332.6z M599.5,310.4c0,6.1,1.5,11,4.5,14.5
			c3,3.5,7.5,5.3,13.5,5.3c3.5,0.1,6.9-0.6,10-2.3c2.4-1.3,4.6-3.1,6.4-5.2l2.7,1.2c-0.6,1.8-1.4,3.6-2.4,5.2
			c-1.2,1.8-2.6,3.4-4.4,4.7c-1.9,1.5-4.1,2.6-6.4,3.4c-2.8,0.9-5.8,1.3-8.8,1.3c-3.7,0.1-7.4-0.7-10.8-2.2
			c-5.7-2.6-10.1-7.4-12-13.4c-1-2.9-1.5-5.9-1.5-9c-0.1-3.9,0.6-7.7,2-11.4c1.3-3.3,3.2-6.3,5.7-8.8c2.5-2.5,5.4-4.4,8.7-5.6
			c3.5-1.3,7.2-1.9,11-1.9c5.6,0,9.9,1.2,13.1,3.5c3,2,4.7,5.3,4.7,8.8c0,1.3-0.3,2.5-0.9,3.6c-0.7,1.1-1.6,1.9-2.8,2.5h-6.4v-3.9
			c0-3-0.8-5.2-2.2-6.7s-3.9-2.3-7.3-2.3c-2.2,0-4.5,0.4-6.5,1.2c-2,0.8-3.7,2-5.2,3.6c-1.5,1.7-2.6,3.7-3.4,5.8
			C599.9,305,599.4,307.7,599.5,310.4L599.5,310.4z M571,331.2c0-1.9,0.7-3.8,2.1-5.2c1.3-1.4,3.2-2.2,5.2-2.1c4,0,7.3,3.3,7.3,7.3
			c0,4-3.3,7.3-7.3,7.3C574.3,338.5,571,335.2,571,331.2C571,331.2,571,331.2,571,331.2z M543.8,338.5c-3.5,0.1-6.9-0.4-10.3-1.4
			c-2.7-0.8-5.2-2-7.4-3.6l-0.6-12.6h4c1,4.1,2.7,7.2,4.9,9.3c2.3,2.1,5.4,3.2,9.4,3.2c3.3,0,5.9-0.7,7.8-2.1
			c1.9-1.5,2.9-3.9,2.8-6.3c0.1-2-0.7-3.9-2.3-5.1c-1.9-1.3-4.1-2.3-6.4-2.9l-6.6-2.1c-1.8-0.6-3.6-1.3-5.4-2.1
			c-1.5-0.7-2.9-1.6-4.1-2.8c-1.1-1.1-2-2.4-2.6-3.9c-0.6-1.8-0.9-3.7-0.9-5.5c-0.2-4,1.6-7.9,4.7-10.5c3.2-2.6,7.4-3.8,12.8-3.8
			c3.1,0,6.1,0.3,9,1.1c2.5,0.7,5,1.7,7.2,3v11.8h-4c-0.8-3.9-2.2-6.6-4.2-8.3c-2-1.7-4.9-2.5-8.4-2.5c-2.2-0.1-4.5,0.5-6.3,1.8
			c-1.7,1.3-2.6,3.4-2.4,5.5c-0.1,1.7,0.5,3.4,1.7,4.5c1.6,1.2,3.4,2.1,5.3,2.7l7.5,2.3c2,0.6,4,1.3,5.9,2.2c1.6,0.8,3,1.8,4.3,3
			c1.2,1.2,2.1,2.6,2.6,4.2c0.6,1.9,0.9,3.8,0.9,5.8c0.2,4.3-1.8,8.4-5.3,11c-3.5,2.7-8.2,4-14,4L543.8,338.5z M500.9,286.3
			c3.1-0.1,6.2,0.5,9.1,1.5c2.5,0.9,4.7,2.3,6.6,4.2c1.8,1.8,3.2,4,4,6.4c0.9,2.6,1.4,5.3,1.3,8v2.6h-37.2c0,6.5,1.5,11.7,4.4,15.5
			s7.5,5.7,13.8,5.7c3.5,0.1,6.9-0.6,10-2.3c2.4-1.3,4.6-3.1,6.4-5.2l2.8,1.2c-0.6,1.8-1.4,3.6-2.4,5.2c-1.2,1.8-2.6,3.4-4.4,4.7
			c-1.9,1.5-4.1,2.6-6.4,3.4c-2.8,0.9-5.8,1.3-8.8,1.3c-3.5,0.1-7-0.6-10.2-1.9c-2.9-1.2-5.5-3-7.6-5.2c-2.1-2.2-3.7-4.9-4.8-7.8
			c-1.1-3.1-1.7-6.3-1.7-9.6c0-3.9,0.6-7.7,1.9-11.3c1.2-3.2,2.9-6.2,5.2-8.7c2.2-2.4,5-4.4,8-5.6
			C494.1,287,497.5,286.3,500.9,286.3L500.9,286.3z M498.5,292.2c-3.4-0.1-6.7,1.1-9.2,3.4c-2.4,2.3-3.9,5.4-4.3,8.8h26.4
			c0-1.6-0.3-3.2-0.8-4.7c-0.5-1.5-1.4-2.8-2.5-3.9c-1.2-1.1-2.6-2-4.1-2.6C502.3,292.5,500.4,292.2,498.5,292.2L498.5,292.2z
			 M433.6,295.7c1-1.2,2.1-2.4,3.2-3.4c1.3-1.2,2.7-2.2,4.3-3c1.6-0.9,3.3-1.6,5-2.1c1.7-0.5,3.6-0.8,5.4-0.8c4.7,0,8.3,1.3,11,3.8
			c2.7,2.6,4,6.1,4,10.6v27.7c0,0.9,0.2,1.8,0.6,2.6c0.4,0.6,0.9,1.2,1.6,1.5c0.8,0.4,1.6,0.6,2.4,0.8c1,0.2,2,0.4,3,0.5v3.7h-24.5
			v-3.7c1.1-0.1,2.1-0.3,3-0.5c0.8-0.1,1.7-0.4,2.4-0.8c0.7-0.3,1.2-0.9,1.6-1.5c0.4-0.8,0.6-1.7,0.6-2.6v-25.2c0-3.1-0.8-5.5-2.4-7
			s-3.9-2.2-7-2.2c-2.5,0-4.9,0.6-7.2,1.6c-2.4,0.9-4.5,2.3-6.4,4v28.8c0,0.9,0.2,1.8,0.6,2.6c0.4,0.6,0.9,1.2,1.6,1.5
			c0.8,0.4,1.6,0.6,2.4,0.8c0.9,0.2,1.9,0.4,3,0.5v3.7h-24.6v-3.7c1.1-0.1,2.1-0.3,3-0.5c0.8-0.2,1.7-0.4,2.4-0.8
			c0.7-0.3,1.2-0.9,1.6-1.5c0.4-0.8,0.6-1.7,0.6-2.6v-25.2c0-3.1-0.8-5.5-2.4-7s-3.9-2.2-7-2.2c-2.5,0-4.9,0.6-7.2,1.6
			c-2.3,0.9-4.5,2.3-6.4,4v28.8c0,0.9,0.2,1.8,0.6,2.6c0.4,0.6,0.9,1.2,1.6,1.5c0.8,0.4,1.6,0.6,2.4,0.8c1,0.2,2,0.4,3,0.5v3.7
			h-24.5v-3.7c1.1-0.1,2.1-0.3,3-0.5c0.8-0.2,1.6-0.4,2.4-0.8c0.7-0.3,1.2-0.9,1.6-1.5c0.4-0.8,0.6-1.7,0.6-2.6v-31.7l-7.1-3.4v-2.3
			l13.7-4.7h3.3l-0.5,9c2-2.5,4.5-4.7,7.3-6.2c1.5-0.8,3.2-1.5,4.8-2c1.7-0.5,3.5-0.8,5.2-0.8c3.3-0.1,6.6,0.7,9.4,2.4
			C431,290.4,432.8,292.9,433.6,295.7L433.6,295.7z M353.7,338.5c-3.5,0-7-0.6-10.2-1.9c-3-1.2-5.7-2.9-8-5.2c-2.3-2.3-4-5-5.2-7.9
			c-1.3-3.2-1.9-6.7-1.8-10.1c-0.1-3.8,0.7-7.7,2.2-11.2c2.7-6.4,8-11.4,14.5-13.9c3.3-1.3,6.9-1.9,10.4-1.9c3.5,0,7,0.6,10.2,1.9
			c3,1.1,5.7,2.9,8,5.2c2.2,2.3,4,5,5.2,8c1.3,3.2,1.9,6.6,1.9,10.1c0.1,3.9-0.7,7.7-2.2,11.2c-2.7,6.4-8,11.4-14.5,13.9
			C360.9,337.9,357.3,338.5,353.7,338.5L353.7,338.5z M356.6,332.6c2.2,0.1,4.3-0.4,6.2-1.3c1.8-0.9,3.3-2.1,4.4-3.7
			c1.2-1.7,2.1-3.6,2.6-5.7c0.6-2.3,0.9-4.7,0.9-7.2c0-2.9-0.4-5.9-1.2-8.7c-0.7-2.6-1.9-5-3.5-7.2c-1.5-2-3.4-3.7-5.6-4.8
			c-2.4-1.2-5-1.8-7.6-1.8c-2.1,0-4.3,0.4-6.2,1.3c-1.8,0.9-3.3,2.2-4.5,3.8c-1.2,1.7-2.1,3.6-2.6,5.7c-0.6,2.3-0.9,4.7-0.9,7.1
			c0,2.9,0.4,5.9,1.2,8.7c0.7,2.6,1.9,5,3.5,7.2c1.5,2,3.4,3.7,5.6,4.8C351.3,332,353.9,332.6,356.6,332.6L356.6,332.6z
			 M304.3,302.4h-42.2v23.3c0,1.3,0.2,2.6,0.7,3.8c0.4,1,1.2,1.7,2.1,2.3c1.1,0.6,2.2,1,3.4,1.1c1.6,0.2,3.1,0.4,4.7,0.4v4.1h-32.2
			v-4.1c1.6,0,3.1-0.2,4.7-0.4c1.2-0.2,2.4-0.6,3.4-1.1c0.9-0.5,1.6-1.3,2.1-2.3c0.5-1.2,0.8-2.5,0.7-3.8v-50.4
			c0.1-1.3-0.2-2.6-0.7-3.8c-0.4-1-1.2-1.8-2.1-2.3c-1.1-0.6-2.2-1-3.4-1.1c-1.6-0.2-3.1-0.4-4.7-0.4v-4.1h32.2v4.1
			c-1.6,0-3.1,0.2-4.7,0.4c-1.2,0.2-2.4,0.5-3.4,1.1c-0.9,0.5-1.6,1.3-2.1,2.3c-0.5,1.2-0.8,2.5-0.7,3.8v21.9h42.2v-21.9
			c0.1-1.3-0.2-2.6-0.7-3.8c-0.4-1-1.2-1.8-2.1-2.3c-1.1-0.6-2.2-1-3.4-1.1c-1.6-0.2-3.1-0.4-4.7-0.4v-4.1h32.2v4.1
			c-1.6,0-3.1,0.2-4.7,0.4c-1.2,0.2-2.4,0.5-3.4,1.1c-0.9,0.5-1.6,1.3-2.1,2.3c-0.5,1.2-0.8,2.5-0.7,3.8v50.4
			c-0.1,1.3,0.2,2.6,0.7,3.8c0.4,1,1.2,1.7,2.1,2.3c1.1,0.6,2.2,1,3.4,1.1c1.6,0.2,3.1,0.4,4.7,0.4v4.1h-32.2v-4.1
			c1.6,0,3.1-0.2,4.7-0.4c1.2-0.2,2.4-0.6,3.4-1.1c0.9-0.5,1.6-1.3,2.1-2.3c0.5-1.2,0.8-2.5,0.7-3.8V302.4L304.3,302.4z"/>
		<path class="st4" d="M788.1,285.9h1.4l2.1,6.1l2-6.1h1.4v7.2H794v-4.2c0-0.1,0-0.4,0-0.7V287L792,293h-1l-2.1-6.1v1
			c0,0.4,0,0.6,0,0.8v4.2H788v-7.2L788.1,285.9z M787.2,285.9v0.9h-2.4v6.3h-1v-6.3h-2.4v-0.9H787.2z"/>
	</g>
</g>
</svg>
