<?xml version="1.0" encoding="UTF-8" standalone="no"?>
<!-- Created with Inkscape (http://www.inkscape.org/) -->

<svg
   xmlns:dc="http://purl.org/dc/elements/1.1/"
   xmlns:cc="http://creativecommons.org/ns#"
   xmlns:rdf="http://www.w3.org/1999/02/22-rdf-syntax-ns#"
   xmlns:svg="http://www.w3.org/2000/svg"
   xmlns="http://www.w3.org/2000/svg"
   xmlns:sodipodi="http://sodipodi.sourceforge.net/DTD/sodipodi-0.dtd"
   xmlns:inkscape="http://www.inkscape.org/namespaces/inkscape"
   width="999.99994"
   height="220.12306"
   viewBox="0 0 99.999994 22.012307"
   version="1.1"
   id="svg8"
   inkscape:version="0.92.4 (5da689c313, 2019-01-14)"
   sodipodi:docname="A.svg">
  <defs
     id="defs2" />
  <sodipodi:namedview
     id="base"
     pagecolor="#ffffff"
     bordercolor="#666666"
     borderopacity="1.0"
     inkscape:pageopacity="0.0"
     inkscape:pageshadow="2"
     inkscape:zoom="0.30656934"
     inkscape:cx="695.93526"
     inkscape:cy="16.049454"
     inkscape:document-units="px"
     inkscape:current-layer="layer1"
     showgrid="false"
     units="px"
     fit-margin-top="0"
     fit-margin-left="0"
     fit-margin-right="0"
     fit-margin-bottom="0"
     inkscape:window-width="1013"
     inkscape:window-height="1017"
     inkscape:window-x="897"
     inkscape:window-y="-1"
     inkscape:window-maximized="0" />
  <metadata
     id="metadata5">
    <rdf:RDF>
      <cc:Work
         rdf:about="">
        <dc:format>image/svg+xml</dc:format>
        <dc:type
           rdf:resource="http://purl.org/dc/dcmitype/StillImage" />
        <dc:title></dc:title>
      </cc:Work>
    </rdf:RDF>
  </metadata>
  <g
     inkscape:label="Layer 1"
     inkscape:groupmode="layer"
     id="layer1"
     transform="translate(-32.708855,-35.844607)">
    <g
       style="fill:#006aff;fill-opacity:1;fill-rule:evenodd;stroke:none;stroke-width:1;stroke-linecap:square;stroke-linejoin:bevel"
       id="g534"
       transform="matrix(0.05486108,0,0,0.05486108,31.584206,35.868592)">
      <path
         style="vector-effect:none;fill-rule:nonzero"
         inkscape:connector-curvature="0"
         id="path532"
         d="m 1460.4,148.6 h 77.8 l 22.5,73.7 c 7.5,24.4 20.1,70.2 20.1,70.2 0.2,0.6 1,0.5 1.1,0 0,0 13,-46.7 20.4,-70.2 l 23.6,-73.7 h 57.4 l 23.2,73.7 c 7.8,25.2 20,70.2 20,70.2 0.2,0.6 0.9,0.6 1.2,0 0,0 12.6,-45.5 20.1,-70.2 l 22.5,-73.7 h 72.3 l -78.2,243.5 h -71.1 l -19.4,-61.2 c -7.4,-24 -20.5,-70.6 -20.5,-70.6 -0.2,-0.6 -1,-0.6 -1.1,0 0,0 -13.1,45.7 -21,70.2 l -19.8,61.6 h -72.4 l -78.7,-243.5" />
    </g>
    <g
       style="fill:none;fill-rule:evenodd;stroke:#006aff;stroke-width:1;stroke-linecap:butt;stroke-linejoin:miter;stroke-miterlimit:4;stroke-opacity:1"
       id="g538"
       transform="matrix(0.05486108,0,0,0.05486108,31.584206,35.868592)"
       stroke-miterlimit="4">
      <path
         style="vector-effect:none;fill-rule:nonzero"
         inkscape:connector-curvature="0"
         id="path536"
         d="m 1460.4,148.6 h 77.8 l 22.5,73.7 c 7.5,24.4 20.1,70.2 20.1,70.2 0.2,0.6 1,0.5 1.1,0 0,0 13,-46.7 20.4,-70.2 l 23.6,-73.7 h 57.4 l 23.2,73.7 c 7.8,25.2 20,70.2 20,70.2 0.2,0.6 0.9,0.6 1.2,0 0,0 12.6,-45.5 20.1,-70.2 l 22.5,-73.7 h 72.3 l -78.2,243.5 h -71.1 l -19.4,-61.2 c -7.4,-24 -20.5,-70.6 -20.5,-70.6 -0.2,-0.6 -1,-0.6 -1.1,0 0,0 -13.1,45.7 -21,70.2 l -19.8,61.6 h -72.4 l -78.7,-243.5" />
    </g>
    <g
       style="fill:#006aff;fill-opacity:1;fill-rule:evenodd;stroke:none;stroke-width:1;stroke-linecap:square;stroke-linejoin:bevel"
       id="g544"
       transform="matrix(0.05486108,0,0,0.05486108,31.584206,35.868592)">
      <rect
         id="rect542"
         height="372.20001"
         width="78.699997"
         y="19.9"
         x="936.79999" />
    </g>
    <g
       style="fill:none;fill-rule:evenodd;stroke:#006aff;stroke-width:1;stroke-linecap:butt;stroke-linejoin:miter;stroke-miterlimit:4;stroke-opacity:1"
       id="g548"
       transform="matrix(0.05486108,0,0,0.05486108,31.584206,35.868592)"
       stroke-miterlimit="4">
      <path
         style="vector-effect:none;fill-rule:nonzero"
         inkscape:connector-curvature="0"
         id="path546"
         d="m 936.8,19.9 h 78.7 V 392.1 H 936.8 V 19.9" />
    </g>
    <g
       style="fill:#006aff;fill-opacity:1;fill-rule:evenodd;stroke:none;stroke-width:1;stroke-linecap:square;stroke-linejoin:bevel"
       id="g554"
       transform="matrix(0.05486108,0,0,0.05486108,31.584206,35.868592)">
      <rect
         id="rect552"
         height="372.20001"
         width="78.699997"
         y="19.9"
         x="1073.8" />
    </g>
    <g
       style="fill:none;fill-rule:evenodd;stroke:#006aff;stroke-width:1;stroke-linecap:butt;stroke-linejoin:miter;stroke-miterlimit:4;stroke-opacity:1"
       id="g558"
       transform="matrix(0.05486108,0,0,0.05486108,31.584206,35.868592)"
       stroke-miterlimit="4">
      <path
         style="vector-effect:none;fill-rule:nonzero"
         inkscape:connector-curvature="0"
         id="path556"
         d="m 1073.8,19.9 h 78.7 v 372.2 h -78.7 V 19.9" />
    </g>
    <g
       style="fill:#006aff;fill-opacity:1;fill-rule:evenodd;stroke:none;stroke-width:1;stroke-linecap:square;stroke-linejoin:bevel"
       id="g564"
       transform="matrix(0.05486108,0,0,0.05486108,31.584206,35.868592)">
      <path
         style="vector-effect:none;fill-rule:nonzero"
         inkscape:connector-curvature="0"
         id="path562"
         d="m 1380.7,271.2 c 0,-36.2 -25.9,-60.9 -56.5,-60.9 -31.3,0 -57.2,24.7 -57.2,60.9 0,36.5 25.9,60.9 57.2,60.9 30.6,0 56.5,-24.4 56.5,-60.9 m -189.2,0 c 0,-74 59.7,-128.8 132.7,-128.8 72.3,0 132,54.8 132,128.8 0,74.2 -59.7,129.1 -132,129.1 -73,-0.1 -132.7,-54.9 -132.7,-129.1" />
    </g>
    <g
       style="fill:none;fill-rule:evenodd;stroke:#006aff;stroke-width:1;stroke-linecap:butt;stroke-linejoin:miter;stroke-miterlimit:4;stroke-opacity:1"
       id="g568"
       transform="matrix(0.05486108,0,0,0.05486108,31.584206,35.868592)"
       stroke-miterlimit="4">
      <path
         style="vector-effect:none;fill-rule:nonzero"
         inkscape:connector-curvature="0"
         id="path566"
         d="m 1380.7,271.2 c 0,-36.2 -25.9,-60.9 -56.5,-60.9 -31.3,0 -57.2,24.7 -57.2,60.9 0,36.5 25.9,60.9 57.2,60.9 30.6,0 56.5,-24.4 56.5,-60.9 m -189.2,0 c 0,-74 59.7,-128.8 132.7,-128.8 72.3,0 132,54.8 132,128.8 0,74.2 -59.7,129.1 -132,129.1 -73,-0.1 -132.7,-54.9 -132.7,-129.1" />
    </g>
    <g
       style="fill:#006aff;fill-opacity:1;fill-rule:evenodd;stroke:none;stroke-width:1;stroke-linecap:square;stroke-linejoin:bevel"
       id="g574"
       transform="matrix(0.05486108,0,0,0.05486108,31.584206,35.868592)">
      <path
         style="vector-effect:none;fill-rule:nonzero"
         inkscape:connector-curvature="0"
         id="path572"
         d="m 481.5,54.4 v 71.8 h 139.1 c 0.6,0 0.8,0.5 0.5,1 L 481.4,364.5 c -3.4,6.2 -4.2,7.5 -4.2,13.7 v 14 h 271 V 320.6 H 597.7 c -0.6,0 -0.8,-0.6 -0.5,-1 L 738.5,79 c 1.1,-2.3 2.3,-4 2.3,-9.6 v -15 H 481.5" />
    </g>
    <g
       style="fill:none;fill-rule:evenodd;stroke:#006aff;stroke-width:1;stroke-linecap:butt;stroke-linejoin:miter;stroke-miterlimit:4;stroke-opacity:1"
       id="g578"
       transform="matrix(0.05486108,0,0,0.05486108,31.584206,35.868592)"
       stroke-miterlimit="4">
      <path
         style="vector-effect:none;fill-rule:nonzero"
         inkscape:connector-curvature="0"
         id="path576"
         d="m 481.5,54.4 v 71.8 h 139.1 c 0.6,0 0.8,0.5 0.5,1 L 481.4,364.5 c -3.4,6.2 -4.2,7.5 -4.2,13.7 v 14 h 271 V 320.6 H 597.7 c -0.6,0 -0.8,-0.6 -0.5,-1 L 738.5,79 c 1.1,-2.3 2.3,-4 2.3,-9.6 v -15 H 481.5" />
    </g>
    <g
       style="fill:#006aff;fill-opacity:1;fill-rule:evenodd;stroke:none;stroke-width:1;stroke-linecap:square;stroke-linejoin:bevel"
       id="g584"
       transform="matrix(0.05486108,0,0,0.05486108,31.584206,35.868592)">
      <path
         style="vector-effect:none;fill-rule:nonzero"
         inkscape:connector-curvature="0"
         id="path582"
         d="m 798.4,148.6 h 78.7 V 392.1 H 798.4 V 148.6 m 39.3,-122 c 24.5,0 44.8,19.8 44.8,44.2 0,24.4 -20.3,44.2 -44.8,44.2 -24.5,0 -44.8,-19.8 -44.8,-44.2 0,-24.4 20.3,-44.2 44.8,-44.2" />
    </g>
    <g
       style="fill:none;fill-rule:evenodd;stroke:#006aff;stroke-width:1;stroke-linecap:butt;stroke-linejoin:miter;stroke-miterlimit:4;stroke-opacity:1"
       id="g588"
       transform="matrix(0.05486108,0,0,0.05486108,31.584206,35.868592)"
       stroke-miterlimit="4">
      <path
         style="vector-effect:none;fill-rule:nonzero"
         inkscape:connector-curvature="0"
         id="path586"
         d="m 798.4,148.6 h 78.7 V 392.1 H 798.4 V 148.6 m 39.3,-122 c 24.5,0 44.8,19.8 44.8,44.2 0,24.4 -20.3,44.2 -44.8,44.2 -24.5,0 -44.8,-19.8 -44.8,-44.2 0,-24.4 20.3,-44.2 44.8,-44.2" />
    </g>
    <g
       style="fill:#006aff;fill-opacity:1;fill-rule:evenodd;stroke:none;stroke-width:1;stroke-linecap:square;stroke-linejoin:bevel"
       id="g626"
       transform="matrix(0.05486108,0,0,0.05486108,32.736289,35.868592)">
      <path
         style="vector-effect:none;fill-rule:nonzero"
         inkscape:connector-curvature="0"
         id="path624"
         d="m 242.2,106.3 c 1.8,-0.4 2.6,0.2 3.7,1.4 6.2,6.9 26,31.1 31.4,37.7 1,1.2 0.3,2.5 -0.5,3.2 -40,31.2 -84.5,75.4 -109.3,107 -0.5,0.7 -0.1,0.7 0.3,0.6 43.2,-18.6 144.7,-48.3 190.4,-56.6 V 141.7 L 179.3,0.2 0.1,141.6 v 63.3 c 55.5,-33 183.9,-84.1 242.1,-98.6" />
    </g>
    <g
       style="fill:none;fill-rule:evenodd;stroke:#006aff;stroke-width:1;stroke-linecap:butt;stroke-linejoin:miter;stroke-miterlimit:4;stroke-opacity:1"
       id="g630"
       transform="matrix(0.05486108,0,0,0.05486108,32.736289,35.868592)"
       stroke-miterlimit="4">
      <path
         style="vector-effect:none;fill-rule:nonzero"
         inkscape:connector-curvature="0"
         id="path628"
         d="m 242.2,106.3 c 1.8,-0.4 2.6,0.2 3.7,1.4 6.2,6.9 26,31.1 31.4,37.7 1,1.2 0.3,2.5 -0.5,3.2 -40,31.2 -84.5,75.4 -109.3,107 -0.5,0.7 -0.1,0.7 0.3,0.6 43.2,-18.6 144.7,-48.3 190.4,-56.6 V 141.7 L 179.3,0.2 0.1,141.6 v 63.3 c 55.5,-33 183.9,-84.1 242.1,-98.6" />
    </g>
    <g
       style="fill:#006aff;fill-opacity:1;fill-rule:evenodd;stroke:none;stroke-width:1;stroke-linecap:square;stroke-linejoin:bevel"
       id="g636"
       transform="matrix(0.05486108,0,0,0.05486108,32.736289,35.868592)">
      <path
         style="vector-effect:none;fill-rule:nonzero"
         inkscape:connector-curvature="0"
         id="path634"
         d="m 96.6,349.5 c -1.5,0.8 -2.7,0.6 -3.9,-0.6 L 59.3,309.1 c -0.9,-1.1 -1,-1.7 0.2,-3.4 25.8,-37.8 78.5,-96.7 112.1,-121.6 0.6,-0.4 0.4,-0.9 -0.3,-0.6 -35,11.4 -134.5,54.2 -171.3,75 V 393.7 H 358.1 V 263.5 c -48.8,8.3 -195,51.8 -261.5,86" />
    </g>
    <path
       d="m 38.035869,55.042548 c -0.08229,0.04389 -0.148125,0.03292 -0.213958,-0.03292 l -1.83236,-2.183472 c -0.04937,-0.06035 -0.05486,-0.09326 0.01097,-0.186527 1.415416,-2.073749 4.306595,-5.305074 6.149928,-6.671115 0.03292,-0.02195 0.02194,-0.04938 -0.01646,-0.03292 -1.920138,0.625417 -7.378816,2.973471 -9.397703,4.114582 v 7.417225 H 52.38204 v -7.14292 c -2.677221,0.455347 -10.697912,2.841811 -14.346174,4.71806"
       id="path638"
       inkscape:connector-curvature="0"
       style="vector-effect:none;fill:none;fill-rule:nonzero;stroke:#006aff;stroke-width:0.05486109;stroke-linecap:butt;stroke-linejoin:miter;stroke-miterlimit:4;stroke-opacity:1" />
  </g>
</svg>
