<svg id="LOGO" xmlns="http://www.w3.org/2000/svg" xmlns:xlink="http://www.w3.org/1999/xlink" viewBox="0 0 1447.54 759.06"><defs><style>.cls-1,.cls-2{fill:none;}.cls-1{clip-rule:evenodd;}.cls-3{clip-path:url(#clip-path);}.cls-4{clip-path:url(#clip-path-2);}.cls-5{fill:#0a0b09;}.cls-6{clip-path:url(#clip-path-3);}.cls-7{clip-path:url(#clip-path-5);}</style><clipPath id="clip-path"><path class="cls-1" d="M741,413.17h0V333.64H700.8v81a36,36,0,1,1-71.91,0v-81H588.67v79.51h0v0h0c0,42.31,34.12,76.6,76.17,76.6S741,455.52,741,413.21v0"/></clipPath><clipPath id="clip-path-2"><rect class="cls-2" x="-159.4" y="-368.98" width="3622.38" height="2069.93"/></clipPath><clipPath id="clip-path-3"><path class="cls-1" d="M412.36,374.05V333.51H359.79V283.87H319.51v49.64h-27v40.54h27v39h0v0c0,42.4,34.15,76.77,76.28,76.77A75.92,75.92,0,0,0,412.35,488V447.93a39.62,39.62,0,0,1-13.79,2.46c-21.41,0-38.77-16.85-38.77-37.63V374.05h52.57"/></clipPath><clipPath id="clip-path-5"><path class="cls-1" d="M550.76,330.86v39.43H538.58a35.53,35.53,0,0,0-35.4,35.6v79H463v-113H444.33V331.38h39.46l8.18,23c13.26-18,28-23.4,46.59-23.5h12.2ZM837.86,444.6h27v40.28H770.48V444.6h27V319.8h-27V279.52h67.38Zm115,.14h27v40.14H912.53V372.72h-27V332.57h67.38Zm-21-127.57a24,24,0,1,1,24-24A24,24,0,0,1,931.84,317.17Zm182.62,14.41H1155V484.16h-40.54V469c-8.53,10-24.83,17.14-40,17.54-1,.05-2.1.08-3.15.08-40.06.17-72.54-35.24-72.56-78.72s32.5-78.89,72.56-78.72q1.58,0,3.15.09c15.13.39,31.43,7.5,40,17.53ZM1076.9,449c-21.32,0-38.6-18-38.63-40.22s17.31-40.22,38.63-40.22,38.6,18,38.62,40.22S1098.22,449,1076.9,449Z"/></clipPath></defs><title>2019_Trulia_Logo_RGB_Black</title><g class="cls-3"><g class="cls-4"><rect class="cls-5" x="571.42" y="316.39" width="186.85" height="190.67"/></g></g><g class="cls-6"><g class="cls-4"><rect class="cls-5" x="275.28" y="266.62" width="154.32" height="240.44"/></g></g><g class="cls-7"><g class="cls-4"><rect class="cls-5" x="427.08" y="252" width="745.17" height="251.84"/></g></g></svg>